<svg width="256" height="256" viewBox="0 0 256 256" fill="none" xmlns="http://www.w3.org/2000/svg">
  <rect width="256" height="256" rx="128" fill="#0F1720"/>
  <circle cx="128" cy="128" r="108" stroke="#00D4FF" stroke-opacity="0.22" stroke-width="2"/>
  <circle cx="128" cy="102" r="40" fill="#00D4FF" fill-opacity="0.14"/>
  <path d="M74 197C74 165.52 98.52 141 130 141H126C157.48 141 182 165.52 182 197V202H74V197Z" fill="#00D4FF" fill-opacity="0.14"/>
  <path d="M110.422 109V86.2727H117.264L123.527 101.547H123.793L130.057 86.2727H136.899V109H131.516V95.2031H131.328L125.916 108.867H121.404L115.992 95.1367H115.805V109H110.422Z" fill="#F2F7FF"/>
  <path d="M140.609 109V86.2727H149.578C151.301 86.2727 152.805 86.603 154.09 87.2635C155.375 87.9167 156.371 88.8454 157.078 90.0497C157.793 91.2467 158.15 92.6562 158.15 94.2784C158.15 95.9079 157.789 97.3101 157.066 98.4851C156.344 99.6527 155.328 100.548 154.02 101.17C152.719 101.793 151.191 102.104 149.434 102.104H144.07V97.5028H148.506C149.289 97.5028 149.945 97.3958 150.475 97.1818C151.012 96.9678 151.418 96.6411 151.691 96.2017C151.973 95.755 152.113 95.1143 152.113 94.2784C152.113 93.4351 151.973 92.7834 151.691 92.3239C151.418 91.8643 151.012 91.5227 150.475 91.2997C149.938 91.0693 149.273 90.9541 148.484 90.9541H146.324V109H140.609Z" fill="#F2F7FF"/>
</svg>
